<svg width="15" height="14" viewBox="0 0 15 14" fill="none" xmlns="http://www.w3.org/2000/svg">
<path d="M13.9938 3.0875L13.2313 7.26875C13.1683 7.61415 12.9863 7.92655 12.7168 8.15153C12.4472 8.37652 12.1073 8.49983 11.7563 8.5H4.50625L4.78125 10H11.5C11.7967 10 12.0867 10.088 12.3334 10.2528C12.58 10.4176 12.7723 10.6519 12.8858 10.926C12.9994 11.2001 13.0291 11.5017 12.9712 11.7926C12.9133 12.0836 12.7704 12.3509 12.5607 12.5607C12.3509 12.7704 12.0836 12.9133 11.7926 12.9712C11.5017 13.0291 11.2001 12.9994 10.926 12.8858C10.6519 12.7723 10.4176 12.58 10.2528 12.3334C10.088 12.0867 10 11.7967 10 11.5C10.0001 11.3295 10.0297 11.1604 10.0875 11H6.4125C6.47034 11.1604 6.49995 11.3295 6.5 11.5C6.50045 11.742 6.44234 11.9805 6.33062 12.1952C6.2189 12.4099 6.05689 12.5944 5.85843 12.7329C5.65996 12.8714 5.43093 12.9598 5.19088 12.9906C4.95084 13.0214 4.7069 12.9937 4.4799 12.9097C4.2529 12.8258 4.04957 12.6882 3.88728 12.5087C3.72498 12.3292 3.60854 12.113 3.54788 11.8787C3.48722 11.6445 3.48416 11.399 3.53894 11.1632C3.59373 10.9275 3.70474 10.7085 3.8625 10.525L2.13125 1H1C0.867392 1 0.740215 0.947322 0.646447 0.853553C0.552678 0.759785 0.5 0.632608 0.5 0.5C0.5 0.367392 0.552678 0.240215 0.646447 0.146447C0.740215 0.0526784 0.867392 0 1 0H2.13125C2.36465 0.000510561 2.59052 0.082646 2.76973 0.232177C2.94894 0.381709 3.0702 0.589216 3.1125 0.81875L3.41875 2.5H13.5C13.573 2.50015 13.645 2.51649 13.711 2.54783C13.7769 2.57917 13.8351 2.62474 13.8813 2.68125C13.9296 2.73599 13.9649 2.80102 13.9843 2.8714C14.0038 2.94179 14.0071 3.01569 13.9938 3.0875Z" fill="#FAFAFA"/>
</svg>
